<?xml version="1.0" encoding="utf-8"?>
<svg width="51px" height="51px" viewBox="0 0 51 51" version="1.1" xmlns:xlink="http://www.w3.org/1999/xlink" xmlns="http://www.w3.org/2000/svg">
  <g id="Group">
    <path d="M0 25.5C0 11.4167 11.4167 0 25.5 0C39.5833 0 51 11.4167 51 25.5C51 39.5833 39.5833 51 25.5 51C11.4167 51 0 39.5833 0 25.5Z" id="Oval" fill="#27374D" fill-rule="evenodd" stroke="none" />
    <g id="A" transform="translate(13 2.5)">
      <g id="A" fill="#FFFFFF">
        <path d="M16.0225 34.2743L16.8486 34.0546Q17.71 33.8437 18.0879 33.4833Q18.4658 33.123 18.4658 32.4726Q18.4658 31.8925 18.0703 30.706L16.3477 25.6698L8.02441 25.6698L7.16309 28.2978Q6.33691 30.7763 6.33691 32.0771Q6.33691 33.2987 6.83789 34.2743L7.16309 34.9159L6.47754 35.496L-0.140625 35.496L-0.580078 34.2743L0.254883 34.0546Q1.69629 33.6591 2.33789 33.0175Q2.98828 32.3671 3.56836 30.706L9.21973 14.4374Q9.61523 13.2509 9.61523 12.6708Q9.61523 12.0204 9.2373 11.6601Q8.85938 11.2997 7.98926 11.0888L7.16309 10.869L7.59375 9.64737L14.5459 9.64737L21.7793 30.5302Q22.3594 32.1825 23.0361 33.0526Q23.7217 33.914 25.0225 34.9159L24.5479 35.496L16.4531 35.496L16.0225 34.2743ZM8.78027 23.4374L15.5918 23.4374L12.1289 13.3563L8.78027 23.4374Z" />
      </g>
    </g>
  </g>
</svg>